<svg width="1280" height="520" viewBox="0 0 1280 520" fill="none" xmlns="http://www.w3.org/2000/svg" role="img" aria-labelledby="title desc">
  <title id="title">Wish Persona hero image</title>
  <desc id="desc">A calm product-style visual for Wish, an AI agent persona package that turns messy user input into useful task outcomes.</desc>
  <rect width="1280" height="520" rx="0" fill="#101015"/>
  <path d="M90 392C196 270 256 448 362 318C454 205 518 292 590 208C662 124 756 94 856 162C948 224 1015 183 1190 80" stroke="#7CDAA5" stroke-width="8" stroke-linecap="round"/>
  <path d="M90 392C196 270 256 448 362 318C454 205 518 292 590 208C662 124 756 94 856 162C948 224 1015 183 1190 80" stroke="#F4D06F" stroke-width="2" stroke-linecap="round"/>
  <rect x="96" y="88" width="332" height="92" rx="18" fill="#1B1B25" stroke="#3D3D4C"/>
  <text x="128" y="128" fill="#F7F3EA" font-family="Inter, Arial, sans-serif" font-size="24" font-weight="700">messy input</text>
  <text x="128" y="156" fill="#B8B7C6" font-family="Inter, Arial, sans-serif" font-size="18">vague, tired, fragmented</text>
  <rect x="474" y="214" width="332" height="92" rx="18" fill="#1B1B25" stroke="#3D3D4C"/>
  <text x="506" y="254" fill="#F7F3EA" font-family="Inter, Arial, sans-serif" font-size="24" font-weight="700">Wish carries it</text>
  <text x="506" y="282" fill="#B8B7C6" font-family="Inter, Arial, sans-serif" font-size="18">infer, organize, retry</text>
  <rect x="852" y="340" width="332" height="92" rx="18" fill="#1B1B25" stroke="#3D3D4C"/>
  <text x="884" y="380" fill="#F7F3EA" font-family="Inter, Arial, sans-serif" font-size="24" font-weight="700">SSS+ output</text>
  <text x="884" y="408" fill="#B8B7C6" font-family="Inter, Arial, sans-serif" font-size="18">usable versions, less burden</text>
  <text x="96" y="472" fill="#F7F3EA" font-family="Inter, Arial, sans-serif" font-size="44" font-weight="800">Wish / 小愿</text>
  <text x="356" y="472" fill="#B8B7C6" font-family="Inter, Arial, sans-serif" font-size="24">User-chaos tolerant agent persona framework</text>
</svg>

